<?xml version="1.0" encoding="UTF-8"?>
<!DOCTYPE svg PUBLIC "-//W3C//DTD SVG 1.1//EN" "http://www.w3.org/Graphics/SVG/1.1/DTD/svg11.dtd">
<!-- Creator: CorelDRAW X7 -->
<svg xmlns="http://www.w3.org/2000/svg" xml:space="preserve" width="121.009mm" height="52.0889mm" version="1.1" style="shape-rendering:geometricPrecision; text-rendering:geometricPrecision; image-rendering:optimizeQuality; fill-rule:evenodd; clip-rule:evenodd"
viewBox="0 0 16609 7149"
 xmlns:xlink="http://www.w3.org/1999/xlink">
 <defs>
  <style type="text/css">
   <![CDATA[
    .fil1 {fill:black}
    .fil0 {fill:#01A998}
    .fil2 {fill:#D0E2DF}
   ]]>
  </style>
 </defs>
 <g id="Camada_x0020_1">
  <metadata id="CorelCorpID_0Corel-Layer"/>
  <path class="fil0" d="M6746 5462l1 -1095c61,-23 595,-347 730,-419 147,-79 639,-362 748,-401l4 1917 5 -1919c52,-40 566,-294 685,-350 47,-23 194,-107 233,-94 0,-44 305,-163 358,-188 122,-58 251,-115 377,-169 255,-108 514,-217 770,-322 371,-151 812,-311 1194,-445 81,-29 347,-141 415,-119l-11 -17c319,-89 700,-231 1055,-334 740,-214 1436,-411 2189,-599 165,-41 1032,-243 1110,-276 -107,-4 -1522,258 -1659,283 -1251,225 -2763,556 -3991,903 -95,27 -715,222 -756,204 -8,34 -58,35 -97,47l-794 252c-568,189 -1173,414 -1728,642 -280,114 -554,247 -833,358 -23,-162 15,-801 -14,-888l5 895c-241,90 -756,351 -1013,488 -58,32 -278,154 -324,165 94,-238 213,-467 300,-712 97,-273 182,-513 235,-799 109,-582 10,-1165 -318,-1657 -637,-955 -1959,-1101 -2767,-265 14,98 727,1152 834,1373 142,-62 274,-251 480,-229 185,21 257,269 277,423 47,384 -72,831 -188,1183 -97,294 -268,706 -421,973 -139,241 -444,686 -443,955l947 668c113,-48 1000,-645 1190,-766l900 -563c98,-58 210,-135 307,-182l8 1079z"/>
  <path class="fil1" d="M9152 3101c46,344 19,807 19,1164 0,400 -1,799 1,1199l1488 0c0,-522 0,-1041 0,-1559 0,-422 -102,-1050 468,-1094 593,-46 472,571 472,1082 0,523 4,1048 0,1571l1489 0c-1,-739 0,-1475 0,-2210 0,-341 32,-650 -151,-949 -137,-222 -410,-402 -672,-447 -68,-22 -334,90 -415,119 -382,134 -823,294 -1194,445 -256,105 -515,214 -770,322 -126,54 -255,111 -377,169 -53,25 -358,144 -358,188z"/>
  <path class="fil1" d="M740 1008l-5 752 -735 5 0 835 735 4c1,440 0,876 0,1312 0,451 -60,727 229,1090 418,525 1543,457 2129,334 20,-89 -27,-690 -34,-829 -44,-1 -371,108 -606,-7 -211,-103 -230,-262 -230,-483 0,-472 -2,-945 1,-1418l833 0 0 -838 -830 -1 -4 -1134 -1483 378z"/>
  <path class="fil1" d="M6737 2433c29,87 -9,726 14,888 279,-111 553,-244 833,-358 555,-228 1160,-453 1728,-642l794 -252c39,-12 89,-13 97,-47 -222,-106 -287,-162 -550,-197 -483,-65 -1070,21 -1379,434 -56,75 -130,216 -149,222 -9,-179 3,-409 -34,-581 -72,-31 -1216,-11 -1397,-10 23,188 38,352 43,543z"/>
  <path class="fil1" d="M6746 5462l1483 2 -4 -1917c-109,39 -601,322 -748,401 -135,72 -669,396 -730,419l-1 1095z"/>
  <path class="fil1" d="M7441 7122c1,-163 -61,-517 155,-527 137,-7 144,96 143,203 0,108 1,216 0,327l304 1c-2,-231 -51,-513 145,-530 204,-18 151,280 152,530l302 0c0,-187 46,-532 -93,-664 -136,-128 -437,-83 -530,72 -50,-35 -59,-74 -122,-106 -153,-76 -370,-40 -483,99l-7 -120 -266 0 0 719 300 -4z"/>
  <path class="fil1" d="M11518 6407l-308 0c-58,15 -196,225 -255,281l-1 -610 -307 0 0 1048 307 0 6 -359 225 359 365 -4 -325 -403 293 -312z"/>
  <path class="fil0" d="M5754 6798c-35,-281 348,-319 379,-70 37,297 -349,315 -379,70zm691 58c123,-576 -904,-618 -1001,-176 -125,575 909,606 1001,176z"/>
  <path class="fil1" d="M1650 6690c42,-203 313,-199 352,3l-352 -3zm620 151c71,-552 -700,-557 -866,-262 -104,186 -29,413 155,504 161,80 466,80 636,18l-2 -173c-135,34 -504,139 -536,-87l613 0z"/>
  <path class="fil1" d="M11881 6692c14,-183 301,-223 349,1l-349 -1zm540 236c-131,27 -502,145 -536,-87l611 0c67,-554 -688,-553 -862,-269 -112,184 -32,415 152,510 160,82 468,80 637,20l-2 -174z"/>
  <path class="fil1" d="M9110 6947c-58,-166 174,-151 284,-145 14,155 -167,221 -284,145zm-189 -349c124,-33 453,-139 476,72 -180,1 -674,-16 -584,295 36,125 158,167 282,170 224,5 279,-101 319,-108l4 100 266 -5c0,-187 46,-543 -114,-659 -138,-101 -502,-98 -655,-24l6 159z"/>
  <path class="fil0" d="M4635 6585l166 9c5,144 -33,368 74,473 107,105 315,83 452,62l-7 -158c-209,-5 -227,47 -213,-384l213 -2 -4 -179 -209 -1 -1 -234c-54,-2 -226,51 -287,71l-1 164 -187 1 4 178z"/>
  <path class="fil1" d="M12562 6585l162 3c19,161 -40,351 78,477 99,108 315,85 451,63l-6 -159c-238,-6 -213,41 -213,-384l214 -4 -1 -173 -213 -1 0 -243 -290 76 0 167 -185 1 3 177z"/>
  <path class="fil1" d="M3078 6426c-172,-52 -573,-76 -666,116 -142,294 373,261 417,372 -33,123 -321,30 -405,7l-16 183c164,62 583,73 689,-87 68,-103 42,-232 -70,-286 -85,-41 -272,-62 -327,-107l4 -48c85,-78 253,-6 349,23l25 -173z"/>
  <path class="fil1" d="M3210 6584l168 1c0,342 -63,642 517,544 15,-48 11,-113 0,-162 -282,37 -213,-152 -213,-381l218 -1 -3 -178 -215 -3 0 -240 -285 77 -1 164 -188 5 2 174z"/>
  <path class="fil1" d="M557 6585l163 3c28,235 -133,649 528,540l-5 -159c-235,0 -216,30 -216,-383l217 -5 -1 -173 -216 -1 0 -236c-80,1 -201,55 -287,69l0 167 -187 1 4 177z"/>
  <path class="fil1" d="M10201 7126c0,-96 -12,-334 19,-411 55,-139 177,-111 287,-110 21,-39 25,-164 17,-210 -188,-19 -227,9 -353,126l-3 -113 -271 -1 0 719 304 0z"/>
  <path class="fil2" d="M5754 6798c30,245 416,227 379,-70 -31,-249 -414,-211 -379,70z"/>
  <path class="fil2" d="M9110 6947c117,76 298,10 284,-145 -110,-6 -342,-21 -284,145z"/>
  <path class="fil2" d="M11881 6692l349 1c-48,-224 -335,-184 -349,-1z"/>
  <path class="fil2" d="M1650 6690l352 3c-39,-202 -310,-206 -352,-3z"/>
 </g>
</svg>
